<?xml version="1.0" standalone="no"?>
<!DOCTYPE svg PUBLIC "-//W3C//DTD SVG 20010904//EN"
 "http://www.w3.org/TR/2001/REC-SVG-20010904/DTD/svg10.dtd">
<svg version="1.0" xmlns="http://www.w3.org/2000/svg"
 width="300.000000pt" height="300.000000pt" viewBox="0 0 300.000000 300.000000"
 preserveAspectRatio="xMidYMid meet">
<metadata>
Created by potrace 1.11, written by Peter Selinger 2001-2013
</metadata>
<g transform="translate(0.000000,300.000000) scale(0.100000,-0.100000)"
fill="#000000" stroke="none">
<path d="M268 2763 c-14 -9 -31 -27 -37 -40 -8 -17 -11 -392 -11 -1236 1
-1141 2 -1213 18 -1233 10 -12 27 -26 39 -33 16 -8 340 -11 1228 -11 1311 0
1247 -3 1273 55 9 20 12 318 12 1231 0 1107 -1 1208 -17 1234 -9 16 -27 33
-40 39 -17 8 -384 11 -1231 11 -1107 -1 -1209 -2 -1234 -17z"/>
</g>
</svg>
